<svg id="Capa_1" data-name="Capa 1" xmlns="http://www.w3.org/2000/svg" viewBox="0 0 260 53.1"><defs><style>.cls-1,.cls-2{fill:#fff;}.cls-1{fill-rule:evenodd;}</style></defs><path class="cls-1" d="M6.8,50.5a4.1,4.1,0,0,1,.1-1.1,3,3,0,0,1,.4-.8l.7-.5H9.5l.5.3a.4.4,0,0,1,.2.4V45.5H11v7h-.8v-.8a1.3,1.3,0,0,1-.7.6,1.3,1.3,0,0,1-.8.3,1.4,1.4,0,0,1-.9-.3,1.4,1.4,0,0,1-.7-.8,1.7,1.7,0,0,1-.3-1m.9-.1A2.1,2.1,0,0,0,8,51.7a1.2,1.2,0,0,0,.8.4h.1l.7-.2a.9.9,0,0,0,.4-.6,1.6,1.6,0,0,0,.2-1A5.1,5.1,0,0,0,10,49a1,1,0,0,0-1-.6H8.9a1.2,1.2,0,0,0-1,.6,5.9,5.9,0,0,0-.2,1.4"/><path class="cls-1" d="M11.9,50.4a2.8,2.8,0,0,1,.3-1.3,2.7,2.7,0,0,1,.7-.8A2.3,2.3,0,0,1,14,48a1.2,1.2,0,0,1,1.1.4,2.3,2.3,0,0,1,.7.7,2.8,2.8,0,0,1,.1.9v.3H12.8a3.1,3.1,0,0,0,.1,1,1.5,1.5,0,0,0,.5.6l1,.2h.7c.3-.1.4-.3.6-.5V52l-.6.4H14.1a2.1,2.1,0,0,1-1.2-.3,1.8,1.8,0,0,1-.7-.8,2,2,0,0,1-.3-1.1m3.3-.5a2,2,0,0,0-.3-1.1c-.1-.3-.4-.4-.9-.4l-.6.2-.5.6a2,2,0,0,0-.1.7Z"/><path class="cls-1" d="M18.8,52.5,21.7,46h.2l2.8,6.5h-1l-1-2.6H20.4l-.9,2.6h-.7m1.9-3h1.9l-1-2.3Z"/><path class="cls-2" d="M25.2,50.4a2.8,2.8,0,0,1,.3-1.3,2,2,0,0,1,.8-.8,2.9,2.9,0,0,1,1.4-.3h.7l.7.3-.2.6h-.1a1.2,1.2,0,0,0-.5-.5l-.8-.2a.9.9,0,0,0-.7.3c-.3.1-.4.4-.5.7a2.1,2.1,0,0,0,0,1.8,1.8,1.8,0,0,0,.5.7,1.2,1.2,0,0,0,.9.3l.7-.2c.2,0,.4-.2.6-.4h.1v.4l-.7.4h-.8a2.3,2.3,0,0,1-1.1-.3c-.4-.1-.6-.4-.9-.7a2.4,2.4,0,0,1-.3-1.2"/><path class="cls-1" d="M30.2,52.5V48h.7v.9l.3-.5.5-.3h.7v.8h-.5l-.5.2-.3.4a1.3,1.3,0,0,0-.1.6v2.6h-.7"/><path class="cls-1" d="M32.8,50.4a1.9,1.9,0,0,1,.2-1.3,3,3,0,0,1,.8-.8,2,2,0,0,1,1.1-.3,1.5,1.5,0,0,1,1.1.4,1.3,1.3,0,0,1,.6.7,2.9,2.9,0,0,1,.2.9.4.4,0,0,1-.1.3H33.6a3,3,0,0,0,.2,1,1.3,1.3,0,0,0,.5.6l.9.2H36a1.2,1.2,0,0,0,.5-.5V52l-.5.4-.5.2h-.7a2.1,2.1,0,0,1-1.2-.3,2.7,2.7,0,0,1-.7-.8,3.6,3.6,0,0,1-.2-1.1m3.2-.5a3.6,3.6,0,0,0-.2-1.1,1,1,0,0,0-.9-.4l-.7.2a2.1,2.1,0,0,0-.4.6,2.5,2.5,0,0,0-.2.7Z"/><path class="cls-1" d="M37.3,50.5a4.3,4.3,0,0,1,.2-1.1l.4-.8a1.5,1.5,0,0,1,.6-.5H40l.6.3a.8.8,0,0,1,.2.4V45.5h.4c.1.1.2,0,.4,0v7h-.8v-.8a2.1,2.1,0,0,1-.8.6,1.1,1.1,0,0,1-.8.3,1.6,1.6,0,0,1-.9-.3,1.9,1.9,0,0,1-.7-.8,1.7,1.7,0,0,1-.3-1m.9-.1c0,.6.1,1.1.4,1.3a1,1,0,0,0,.8.4h.1l.6-.2a1,1,0,0,0,.5-.6,3,3,0,0,0,.2-1,2.8,2.8,0,0,0-.3-1.3,1,1,0,0,0-.9-.6h-.1a1.1,1.1,0,0,0-1,.6,3.2,3.2,0,0,0-.3,1.4"/><path class="cls-1" d="M42.9,46.4c0-.2,0-.3.1-.4l.4-.2.4.2c.1.1.1.2.1.4s-.1.3-.2.3l-.3.2-.4-.2a.4.4,0,0,1-.1-.3m.1,6.1V48h.8v4.5H43"/><path class="cls-1" d="M45.3,51.4v-3h-.6V48h.6v-.8l.7-.3V48h1a.3.3,0,0,1-.1.2c0,.1.1.1.1.2H46v3.1a.8.8,0,0,0,.2.5c.1.2.2.3.4.3l.5-.2v.3l-.9.2a1,1,0,0,1-.8-.3c-.2-.2-.2-.5-.2-.9"/><path class="cls-1" d="M47.6,51.5a1.3,1.3,0,0,1,.1-.6c.1-.1.2-.3.4-.4l.7-.3L50,50l.3-.2v-.3a.9.9,0,0,0-.1-.5.8.8,0,0,0-.4-.4l-.6-.2c-.2,0-.4,0-.5.2a1.3,1.3,0,0,0-.6.5H48v-.6l.5-.2.4-.2h.6a1.7,1.7,0,0,1,1.2.4c.3.2.4.6.4,1.2v2.3a.3.3,0,0,0,.3.3h.2v.2c-.1.2-.3.2-.5.2h-.5a.5.5,0,0,1-.3-.4,2,2,0,0,1-1.4.6,1.2,1.2,0,0,1-.9-.3.9.9,0,0,1-.4-.8m2.7,0V50.3l-1.1.2-.6.3a1.1,1.1,0,0,0-.2.6v.2a.5.5,0,0,0,.3.4,1.1,1.1,0,0,0,.6.2c.4,0,.7-.2,1-.7"/><path class="cls-2" d="M52.1,50.4a2.8,2.8,0,0,1,.3-1.3,3,3,0,0,1,.8-.8,3.2,3.2,0,0,1,1.4-.3h.7l.7.3v.7h-.2a.8.8,0,0,0-.5-.5l-.7-.2a1.1,1.1,0,0,0-.8.3,1.8,1.8,0,0,0-.5.7,2.1,2.1,0,0,0,0,1.8,1.8,1.8,0,0,0,.5.7,1.6,1.6,0,0,0,.9.3.8.8,0,0,0,.7-.2c.2,0,.4-.2.6-.4H56v.4l-.7.4h-.7a2.7,2.7,0,0,1-1.2-.3,1.8,1.8,0,0,1-.8-.7,1.7,1.7,0,0,1-.4-1.2"/><path class="cls-1" d="M57.1,46.4a.5.5,0,0,1,.2-.4c0-.1.2-.2.3-.2l.4.2c.1.1.1.2.1.4s-.1.3-.2.3l-.3.2-.3-.2c-.2-.1-.2-.2-.2-.3m.1,6.1V48H58v4.5h-.8"/><path class="cls-1" d="M60.3,47.6l1.2-1.3c.1-.2.3-.2.5-.2h.2v.2a.5.5,0,0,1-.3.4l-1.4.9Zm-1.2,2.8a2.6,2.6,0,0,1,1.1-2.1,2.8,2.8,0,0,1,1.3-.3,2,2,0,0,1,2,1.4,2.9,2.9,0,0,1,.2.9c0,.2-.1.5-.1.8l-.4.7-.8.5a1.7,1.7,0,0,1-1,.3h-.1a2.4,2.4,0,0,1-1.2-.3,1.8,1.8,0,0,1-.7-.8,2,2,0,0,1-.3-1.1m.9.1a2.3,2.3,0,0,0,.3,1.1,1.3,1.3,0,0,0,1.1.7,1.4,1.4,0,0,0,1-.5,3.3,3.3,0,0,0,.4-1.5,3.1,3.1,0,0,0-.1-1,1.3,1.3,0,0,0-.5-.7,1.1,1.1,0,0,0-.8-.3,1.1,1.1,0,0,0-1,.6,2.3,2.3,0,0,0-.4,1.4v.2"/><path class="cls-1" d="M64.7,52.5V48h.8v.8q.1-.3.3-.3c0-.1.1-.2.2-.3l.5-.2H67l.8.2a1,1,0,0,1,.5.6,3.1,3.1,0,0,1,.2,1.1v2.7h-.8V49.8a1.5,1.5,0,0,0-.3-1,1.1,1.1,0,0,0-.7-.3h-.6l-.4.5a2.4,2.4,0,0,0-.2.8v2.6h-.8"/><path class="cls-1" d="M0,40.5a5.9,5.9,0,0,1,.2-1.3,3.6,3.6,0,0,1,.7-1A2.6,2.6,0,0,1,2,37.5a3.2,3.2,0,0,1,1.4-.3,4.3,4.3,0,0,1,2.2.4l-.2.8H5.3l-.6-.5-.6-.2H3.4a2.7,2.7,0,0,0-1.2.3,2.2,2.2,0,0,0-.9,1,3.3,3.3,0,0,0-.4,1.5h0a5,5,0,0,0,.3,1.3,1.5,1.5,0,0,0,.6.9l.7.5,1,.2,1-.2a3.1,3.1,0,0,0,1-.5v.6l-.7.3-.7.2H3.3a2.3,2.3,0,0,1-1.2-.2A2.1,2.1,0,0,1,1,42.9a2.3,2.3,0,0,1-.7-1A3.5,3.5,0,0,1,0,40.5"/><path class="cls-1" d="M6,41.6a2.8,2.8,0,0,1,.3-1.3,2.4,2.4,0,0,1,.8-.9,2.8,2.8,0,0,1,1.3-.3,1.7,1.7,0,0,1,1.3.4,1.7,1.7,0,0,1,.7,1,5.1,5.1,0,0,1,.2.9c0,.3-.1.5-.1.8a4.3,4.3,0,0,1-.4.7,1.6,1.6,0,0,1-.8.6l-1,.2H8.2A2.1,2.1,0,0,1,7,43.4a1.6,1.6,0,0,1-.7-.7A2.3,2.3,0,0,1,6,41.6m.9.1a2.6,2.6,0,0,0,.3,1.1,1,1,0,0,0,1,.6,1.4,1.4,0,0,0,1.1-.5,2.7,2.7,0,0,0,.4-1.5,3.1,3.1,0,0,0-.1-1,1.8,1.8,0,0,0-.5-.7,1.1,1.1,0,0,0-.8-.2,1.1,1.1,0,0,0-1,.6,2.1,2.1,0,0,0-.4,1.4v.2"/><path class="cls-1" d="M11.5,43.6V39.1h.7v.7l.3-.3a.5.5,0,0,1,.5-.3l.5-.2h.7a.5.5,0,0,1,.4.3,1.5,1.5,0,0,1,.4.6,1,1,0,0,1,.4-.5l.5-.4h.6l.8.2c.2.2.4.3.5.6a.7.7,0,0,1,.2.6v3.2h-.8v-3a1,1,0,0,0-1-1h-.5a.8.8,0,0,0-.4.4,1.4,1.4,0,0,0-.2.7v2.8h-.7v-3a.8.8,0,0,0-.2-.5.8.8,0,0,0-.4-.4h-.5a.9.9,0,0,0-.7.3,1.2,1.2,0,0,0-.3.9v2.8h-.8"/><path class="cls-1" d="M19.3,37.5c0-.2,0-.3.1-.4h.7c.2.1.2.2.2.4a.5.5,0,0,1-.2.4h-.7c-.1-.1-.1-.2-.1-.4m0,6.1V39.1h.9v4.5h-.9"/><path class="cls-2" d="M21.5,40.5a1.2,1.2,0,0,1,.5-1.1,1.8,1.8,0,0,1,1.1-.3l1,.2-.2.7h-.1l-.2-.3-.3-.2c-.1,0-.3-.1-.4,0s-.3,0-.5.1a.8.8,0,0,0-.2.4.3.3,0,0,0-.1.2.5.5,0,0,0,.2.4l.5.3.7.2.7.5a1.4,1.4,0,0,1,.2.7,1.4,1.4,0,0,1-.2.6,1.7,1.7,0,0,1-.6.6l-.9.2a1.7,1.7,0,0,1-1.3-.4l.2-.6h.2c.3.4.6.7,1,.7l.4-.2c.2,0,.3-.1.4-.3s.1-.2.1-.4a.8.8,0,0,0-.2-.4l-.3-.2-.5-.2h-.4l-.6-.4a1.4,1.4,0,0,1-.2-.7"/><path class="cls-1" d="M25.3,37.5a.5.5,0,0,1,.2-.4c0-.1.2-.1.3-.1h.4c.1.1.1.2.1.4s-.1.3-.1.4h-.7a.5.5,0,0,1-.2-.4m.1,6.1V39.1h.8v4.5h-.8"/><path class="cls-1" d="M28.5,38.7l1.2-1.3.5-.2h.2c.1,0,.1.1.1.2s-.1.2-.3.4l-1.4.8Zm-1.2,2.9a2.8,2.8,0,0,1,.3-1.3,2,2,0,0,1,.9-.9,2.1,2.1,0,0,1,1.2-.3,2,2,0,0,1,2,1.4,5.1,5.1,0,0,1,.2.9,2.2,2.2,0,0,1-.1.8,1.6,1.6,0,0,1-.4.7,1.6,1.6,0,0,1-.8.6l-1,.2h-.1a2.1,2.1,0,0,1-1.2-.3,1.6,1.6,0,0,1-.7-.7,2.3,2.3,0,0,1-.3-1.1m.9.1a2.6,2.6,0,0,0,.3,1.1,1.1,1.1,0,0,0,1.1.6,1.4,1.4,0,0,0,1-.5,2.7,2.7,0,0,0,.4-1.5,3.4,3.4,0,0,0-.1-1,1.8,1.8,0,0,0-.5-.7l-.8-.2a1.1,1.1,0,0,0-1,.6,2.1,2.1,0,0,0-.4,1.4v.2"/><path class="cls-1" d="M32.9,43.6V39.1h.8v.8l.3-.3a.2.2,0,0,1,.2-.2l.5-.3h.6l.7.2a1.8,1.8,0,0,1,.5.7,2.5,2.5,0,0,1,.2,1v2.7h-.8V40.9a1.2,1.2,0,0,0-.3-.9.9.9,0,0,0-.7-.4l-.6.2a1,1,0,0,0-.4.5,1.9,1.9,0,0,0-.2.8v2.5h-.8"/><path class="cls-2" d="M40.6,43.6V37.2h.5l4.4,4.9V37.2h.6v6.4h-.3l-4.6-5v5h-.6"/><path class="cls-1" d="M47.4,42.6a.7.7,0,0,1,.1-.5l.4-.5.6-.2,1.2-.3H50c.1-.1.1-.2.1-.4a1.1,1.1,0,0,0-.1-.5l-.4-.4-.6-.2-.6.2-.5.5h-.1v-.5l.4-.3.5-.2h.6a2.1,2.1,0,0,1,1.2.3,2.1,2.1,0,0,1,.4,1.2V43c0,.2.1.3.2.3h.3v.2l-.5.2-.6-.2a.5.5,0,0,1-.2-.4,2.6,2.6,0,0,1-1.5.7,1.2,1.2,0,0,1-.8-.4.9.9,0,0,1-.4-.8m2.7.1V41.4l-1.1.2a.9.9,0,0,0-.6.4c-.2.1-.2.3-.2.5v.2c0,.2.1.3.3.4l.5.2a1.4,1.4,0,0,0,1.1-.6"/><path class="cls-2" d="M51.9,41.5a2.1,2.1,0,0,1,.3-1.2,1.6,1.6,0,0,1,.8-.8,2.9,2.9,0,0,1,1.4-.3h.7l.7.2-.2.7h-.1c-.2-.2-.3-.4-.5-.5l-.8-.2a.9.9,0,0,0-.7.3,1.2,1.2,0,0,0-.5.7,1.5,1.5,0,0,0-.2.9,1.6,1.6,0,0,0,.2,1,1.8,1.8,0,0,0,.5.7l.9.2h.7l.6-.5h.1v.5l-.7.3h-.8a2.2,2.2,0,0,1-1.1-.2,1.8,1.8,0,0,1-.9-.8,2.1,2.1,0,0,1-.3-1.2"/><path class="cls-1" d="M56.9,37.5c0-.2,0-.3.1-.4h.7a.5.5,0,0,1,0,.8H57c-.1-.1-.1-.2-.1-.4m0,6.1V39.1h.8v4.5h-.8"/><path class="cls-1" d="M58.9,41.6a2.8,2.8,0,0,1,.3-1.3,1.8,1.8,0,0,1,.8-.9,2.8,2.8,0,0,1,1.3-.3,1.8,1.8,0,0,1,1.3.4,3.6,3.6,0,0,1,.7,1,5.1,5.1,0,0,1,.2.9,2.4,2.4,0,0,1-.2.8,1.6,1.6,0,0,1-.4.7,1.3,1.3,0,0,1-.7.6l-1,.2h-.1a2.1,2.1,0,0,1-1.2-.3,2.7,2.7,0,0,1-.8-.7,4.3,4.3,0,0,1-.2-1.1m.8.1a2.6,2.6,0,0,0,.3,1.1,1.1,1.1,0,0,0,1.1.6,1.2,1.2,0,0,0,1-.5,2.6,2.6,0,0,0,.5-1.5,3.6,3.6,0,0,0-.2-1,1.6,1.6,0,0,0-.4-.7l-.8-.2a1.3,1.3,0,0,0-1.1.6,2.9,2.9,0,0,0-.4,1.4v.2"/><path class="cls-1" d="M64.5,43.6V39.1h.8v.8c.1-.1.2-.2.2-.3l.3-.2.4-.3h.6l.7.2a2,2,0,0,1,.6.7,2.5,2.5,0,0,1,.2,1v2.7h-.8V40.9a1.2,1.2,0,0,0-.3-.9.9.9,0,0,0-.8-.4l-.5.2c-.2.1-.3.3-.5.5a1.9,1.9,0,0,0-.1.8v2.5h-.8"/><path class="cls-1" d="M69.3,42.6a.7.7,0,0,1,.1-.5l.4-.5.7-.2,1.1-.3c.2,0,.3,0,.3-.1s.1-.2.1-.4a1.1,1.1,0,0,0-.1-.5c-.1-.1-.2-.3-.4-.4l-.6-.2-.5.2-.6.5h-.1v-.5l.4-.3.5-.2h.6a1.7,1.7,0,0,1,1.2.3,1.6,1.6,0,0,1,.4,1.2V43a.3.3,0,0,0,.3.3h.2v.2l-.5.2-.5-.2c-.2-.1-.3-.2-.3-.4a2.3,2.3,0,0,1-1.4.7,1.3,1.3,0,0,1-.9-.4.9.9,0,0,1-.4-.8m2.7.1V41.4l-1.1.2a.9.9,0,0,0-.6.4c-.2.1-.2.3-.2.5v.2c0,.2.1.3.3.4l.5.2a1.4,1.4,0,0,0,1.1-.6"/><path class="cls-2" d="M74.3,43.6V36.5h.9v7.1h-.9"/><polygon class="cls-2" points="7.9 29.8 17.7 8.1 24.5 24 30.1 19.4 21.4 0.4 13.6 0.5 0.6 29.9 7.9 29.8 7.9 29.8"/><polygon class="cls-2" points="27 29.9 17.8 29.9 24.6 24.2 27 29.9 27 29.9"/><polygon class="cls-2" points="34.8 30.1 44.7 8.1 30.2 19.5 34.8 30.1 34.8 30.1"/><path class="cls-2" d="M40.5,24a7,7,0,0,1,.5-2.5,4.6,4.6,0,0,1,1.3-2,6,6,0,0,1,2.1-1.4,6.7,6.7,0,0,1,2.8-.6,8.1,8.1,0,0,1,4.3.9L51,19.8h-.1l-1.2-.9-1.2-.5H47.2a5.3,5.3,0,0,0-2.4.6A6.6,6.6,0,0,0,43,20.8a7,7,0,0,0-.6,3V24a10,10,0,0,0,.5,2.6,4.2,4.2,0,0,0,1.1,1.7,3.9,3.9,0,0,0,1.6,1l1.8.3a7.6,7.6,0,0,0,2.1-.3,7.7,7.7,0,0,0,1.8-1L51,29.4a5.2,5.2,0,0,1-1.3.6l-1.4.4H47a6.9,6.9,0,0,1-2.5-.4,7.4,7.4,0,0,1-2.1-1.3A6,6,0,0,1,41,26.7a7.6,7.6,0,0,1-.5-2.7Z"/><path class="cls-2" d="M51.9,30.1V16.3h1.6v6.5l.4-.5.6-.6.9-.4,1.4-.2a2.7,2.7,0,0,1,1.4.5,2.4,2.4,0,0,1,.9,1.1,3.3,3.3,0,0,1,.4,1.7v5.7H57.9V24.6a2.4,2.4,0,0,0-.6-1.8,2,2,0,0,0-1.5-.6,2.3,2.3,0,0,0-1.1.3,2.2,2.2,0,0,0-.9,1,4.1,4.1,0,0,0-.3,1.6v5H51.9Z"/><path class="cls-1" d="M60.9,18.1a.8.8,0,0,1,.3-.7.9.9,0,0,1,.6-.3,1.1,1.1,0,0,1,.8.3.9.9,0,0,1,.3.7,1.5,1.5,0,0,1-.4.8c-.2.2-.4.3-.6.2a.8.8,0,0,1-.7-.2,1.1,1.1,0,0,1-.3-.8Zm.1,12V21.3h1.6v8.8H61Z"/><path class="cls-2" d="M64.9,30.1v-14h1.6v14H64.9Z"/><path class="cls-1" d="M67.5,26.1a7.1,7.1,0,0,1,.5-2.6,4.6,4.6,0,0,1,1.5-1.6,4.6,4.6,0,0,1,2.1-.5,3.6,3.6,0,0,1,2.2.6A2.9,2.9,0,0,1,75,23.5a3.8,3.8,0,0,1,.4,1.7c0,.3,0,.5-.1.6H69.2a5,5,0,0,0,.3,1.9,2.2,2.2,0,0,0,1,1.3,3.2,3.2,0,0,0,1.8.4,4,4,0,0,0,1.5-.3l1.1-.8v1l-1,.6-.9.3-1.3.2a4.3,4.3,0,0,1-2.4-.7A4,4,0,0,1,68,28.2a4.6,4.6,0,0,1-.5-2.1Zm6.4-1a4.3,4.3,0,0,0-.5-2.1,1.8,1.8,0,0,0-1.8-.9,2.1,2.1,0,0,0-1.3.5,4.4,4.4,0,0,0-.8,1.1,3.9,3.9,0,0,0-.3,1.4Z"/><path class="cls-2" d="M92.6,20,97.4.3h16.7L113.4,5H100.7L97.9,15.8a8.7,8.7,0,0,1,5.2-1.7,6.9,6.9,0,0,1,5.7,2.8,12.6,12.6,0,0,1,2.2,7.3,19.8,19.8,0,0,1-1.3,8.5,13.3,13.3,0,0,1-4.3,5.9,9.8,9.8,0,0,1-6.5,1.9,7.9,7.9,0,0,1-6.4-3,13.1,13.1,0,0,1-2.5-8h4.4q.3,6.8,4.8,6.9a5.9,5.9,0,0,0,5.5-3.5,15.5,15.5,0,0,0,1.6-8.5,7.8,7.8,0,0,0-1.4-4.2,4.3,4.3,0,0,0-3.2-1.6,5.3,5.3,0,0,0-2.5.5,8.4,8.4,0,0,0-2.7,2Z"/><path class="cls-2" d="M92.6,53V52a2.3,2.3,0,0,1-2.1,1.1,1.7,1.7,0,0,1-1.3-.5,2.1,2.1,0,0,1-.4-1.4,2.6,2.6,0,0,1,.9-1.7,3.1,3.1,0,0,1,2.1-.7h1.2l.2-1a1.5,1.5,0,0,0-.2-1,1.1,1.1,0,0,0-1-.4,1.5,1.5,0,0,0-1.1.4,1.7,1.7,0,0,0-.6,1h-.7a2.2,2.2,0,0,1,.8-1.5,2.5,2.5,0,0,1,1.7-.6,1.7,1.7,0,0,1,1.4.6,2,2,0,0,1,.4,1.6l-.6,3.6v1.4h-.8Zm-1.9-.6a1.8,1.8,0,0,0,1.2-.3,2.4,2.4,0,0,0,.8-.9l.3-1.7H92a2.7,2.7,0,0,0-1.6.4,1.9,1.9,0,0,0-.7,1.2,1.5,1.5,0,0,0,.2,1A1.1,1.1,0,0,0,90.7,52.4Z"/><path class="cls-2" d="M97,45.9,96.8,47a2.5,2.5,0,0,1,2-1.3c.9,0,1.4.6,1.6,1.7v1L99.6,53h-.8l.8-4.7v-.4c.1-1-.3-1.5-1-1.5a1.6,1.6,0,0,0-1.1.5,2.1,2.1,0,0,0-.8,1.1l-.9,5h-.7l1.2-7.1Zm3.9-2.8a1.8,1.8,0,0,1-.4,1.1,1,1,0,0,1-.8.4c-.2,0-.4-.2-.7-.4s-.5-.4-.7-.4-.5.2-.7.6v.2H97a2.8,2.8,0,0,1,.4-1.1.8.8,0,0,1,.8-.3h.4l.4.2.3.3h.4c.4,0,.6-.3.7-.8Z"/><path class="cls-2" d="M104.9,45.7a2.2,2.2,0,0,1,1.6.7,3.6,3.6,0,0,1,.5,1.9,8.6,8.6,0,0,1-.1,1.5,4.5,4.5,0,0,1-1.1,2.5,2,2,0,0,1-1.9.8,2,2,0,0,1-1.5-.6,3.4,3.4,0,0,1-.6-1.7v-.2a10.4,10.4,0,0,1,.1-1.6,4.8,4.8,0,0,1,.6-1.8,3.5,3.5,0,0,1,1-1.1A2.3,2.3,0,0,1,104.9,45.7Zm-2.4,4.7a3.3,3.3,0,0,0,.3,1.5,1.5,1.5,0,0,0,1.1.6,1.8,1.8,0,0,0,1.5-.7,4.2,4.2,0,0,0,.7-1.9l.2-.8v-.6a2.4,2.4,0,0,0-.4-1.5,1,1,0,0,0-1-.6,1.8,1.8,0,0,0-1.5.7,4,4,0,0,0-.8,2.1v1.2Z"/><path class="cls-2" d="M111.8,51.2c.1-.5-.2-.9-.9-1.3l-.3-.2-.7-.4c-.7-.4-1.1-.9-1-1.6a1.6,1.6,0,0,1,.7-1.4,2.3,2.3,0,0,1,1.6-.6,1.7,1.7,0,0,1,1.4.6,2,2,0,0,1,.5,1.5h-.7a1.7,1.7,0,0,0-.3-1,1.8,1.8,0,0,0-1-.4,1.7,1.7,0,0,0-1,.3,1.4,1.4,0,0,0-.5.9,1.2,1.2,0,0,0,.7,1.2l1.2.6a1.8,1.8,0,0,1,1,1.8,1.6,1.6,0,0,1-.7,1.4,2,2,0,0,1-1.7.5,2.5,2.5,0,0,1-1.5-.5,2.1,2.1,0,0,1-.5-1.6h.7a1.3,1.3,0,0,0,.4,1,1.9,1.9,0,0,0,1,.4,2.1,2.1,0,0,0,1.1-.4A1.1,1.1,0,0,0,111.8,51.2Z"/><path class="cls-2" d="M123,17.9a.8.8,0,0,0-.2-.6l-.7-.4a2.7,2.7,0,0,1-1.2-.7,1.5,1.5,0,0,1-.4-1.1,1.7,1.7,0,0,1,.5-1.2,2.2,2.2,0,0,1,1.4-.5l.9.3a1.3,1.3,0,0,1,.7.6,3,3,0,0,1,.2,1H123a.8.8,0,0,0-.2-.7.6.6,0,0,0-.5-.2l-.5.2a.7.7,0,0,0-.1.5c0,.2,0,.3.2.4s.3.3.7.4a4.1,4.1,0,0,1,1.2.8,1.6,1.6,0,0,1,.4,1.2,1.7,1.7,0,0,1-.5,1.2,1.8,1.8,0,0,1-1.3.4l-1.1-.2-.7-.7a1.7,1.7,0,0,1-.3-1h1.2a1.4,1.4,0,0,0,.2.7.8.8,0,0,0,.7.2A.5.5,0,0,0,123,17.9Z"/><path class="cls-2" d="M126.7,19.5a2.2,2.2,0,0,1-1.4-.5,2.5,2.5,0,0,1-.5-1.5v-.4a2.5,2.5,0,0,1,.5-1.6,1.4,1.4,0,0,1,1.3-.5,1.2,1.2,0,0,1,1.2.5,3,3,0,0,1,.5,1.5v.6H126a1.2,1.2,0,0,0,.2.7c.1.2.3.2.6.2a1.2,1.2,0,0,0,.9-.3l.5.6-.6.5Zm-.7-2.7h1.1c0-.3,0-.5-.1-.6l-.4-.2-.5.2C126.1,16.3,126,16.5,126,16.8Z"/><path class="cls-2" d="M132.3,17.4a2.8,2.8,0,0,1-.3,1.5,1.3,1.3,0,0,1-1.1.6,1.1,1.1,0,0,1-.9-.4v2h-1.1V15H130v.4a1,1,0,0,1,.9-.4,1.2,1.2,0,0,1,1.1.5,2.8,2.8,0,0,1,.3,1.5Zm-1.1-.3a2,2,0,0,0-.2-.9c-.1-.2-.2-.3-.4-.3a.7.7,0,0,0-.6.3v2.1c.1.2.3.2.6.2s.4,0,.4-.2a2,2,0,0,0,.2-.9Z"/><path class="cls-2" d="M134.3,14v1h.6v.9h-.6v2.5h.6v.9h-.6c-.7,0-1.1-.4-1.1-1.3V15.9h-.5V15h.5V14Z"/><path class="cls-2" d="M135.6,13.9c0-.2,0-.3.1-.4l.5-.2a.6.6,0,0,1,.4,1c-.1.2-.2.2-.4.2s-.4,0-.5-.2S135.6,14.1,135.6,13.9Zm1.2,5.5h-1.2V15h1.2Z"/><path class="cls-2" d="M139.4,19.5A2.2,2.2,0,0,1,138,19a2.5,2.5,0,0,1-.5-1.5v-.4a2.5,2.5,0,0,1,.5-1.6,1.4,1.4,0,0,1,1.3-.5,1.2,1.2,0,0,1,1.2.5A2.3,2.3,0,0,1,141,17v.6h-2.3a1.2,1.2,0,0,0,.2.7c.1.2.3.2.6.2a1.2,1.2,0,0,0,.9-.3l.5.6a1.5,1.5,0,0,1-.6.5Zm-.7-2.7h1.1c0-.3,0-.5-.1-.6l-.4-.2-.5.2C138.8,16.3,138.7,16.5,138.7,16.8Z"/><path class="cls-2" d="M142.7,15v.4a1.3,1.3,0,0,1,1-.4,1.1,1.1,0,0,1,1,.5,1.2,1.2,0,0,1,1-.5q1.2,0,1.2,1.5v2.9h-1.1V16.6a4.3,4.3,0,0,0-.1-.5l-.4-.2a.5.5,0,0,0-.5.4h0v3h-1.1V16.6a.7.7,0,0,0-.1-.5.5.5,0,0,0-.4-.2c-.2,0-.3.1-.4.3v3.2h-1.2V15Z"/><path class="cls-2" d="M151.2,17.4a2.5,2.5,0,0,1-.4,1.6,1.2,1.2,0,0,1-1,.5,1.4,1.4,0,0,1-1-.5v.4h-1V13.2h1.1v2.2a1,1,0,0,1,.9-.4,1,1,0,0,1,1,.5,2.2,2.2,0,0,1,.4,1.5Zm-1.2-.3c0-.5,0-.8-.1-.9a.6.6,0,0,0-1,0v2a.5.5,0,0,0,.5.3c.3,0,.4,0,.5-.2s.1-.4.1-.8Z"/><path class="cls-2" d="M154,16.1h-.4a.5.5,0,0,0-.6.4v2.9h-1.1V15h1v.5a.6.6,0,0,1,.7-.5h.3Z"/><path class="cls-2" d="M156.3,19.5a2.2,2.2,0,0,1-1.4-.5,2.5,2.5,0,0,1-.5-1.5v-.4a2.5,2.5,0,0,1,.5-1.6,1.4,1.4,0,0,1,1.3-.5,1.3,1.3,0,0,1,1.2.5,3,3,0,0,1,.5,1.5v.6h-2.3a1.2,1.2,0,0,0,.2.7c.1.2.3.2.6.2a1.2,1.2,0,0,0,.9-.3l.5.6-.6.5Zm-.7-2.7h1.1c0-.3,0-.5-.1-.6a.5.5,0,0,0-.4-.2l-.5.2A1.5,1.5,0,0,0,155.6,16.8Z"/><path class="cls-2" d="M160.3,17.1a3.2,3.2,0,0,1,.3-1.6,1.2,1.2,0,0,1,1.1-.5.9.9,0,0,1,.8.4V13.2h1.2v6.2h-1.1V19a1.4,1.4,0,0,1-.9.5,1.4,1.4,0,0,1-1.1-.5,3.5,3.5,0,0,1-.3-1.6Zm1.1.3c0,.4.1.7.1.9s.3.2.5.2a.5.5,0,0,0,.5-.3v-2a.5.5,0,0,0-.5-.3c-.2,0-.4.1-.4.3a1.4,1.4,0,0,0-.2.9Z"/><path class="cls-2" d="M166.3,19.5a2,2,0,0,1-1.4-.5,2.5,2.5,0,0,1-.5-1.5v-.4a2.5,2.5,0,0,1,.5-1.6,1.4,1.4,0,0,1,1.3-.5,1.3,1.3,0,0,1,1.2.5,2.2,2.2,0,0,1,.4,1.5v.6h-2.2c0,.3,0,.6.2.7s.3.2.6.2a1.4,1.4,0,0,0,.9-.3l.5.6-.6.5Zm-.7-2.7h1.1c0-.3,0-.5-.1-.6a.5.5,0,0,0-.4-.2l-.5.2A1.5,1.5,0,0,0,165.6,16.8Z"/><path class="cls-2" d="M173.8,19.4h-3.4v-.8l1.6-2a3,3,0,0,0,.4-.8,1.3,1.3,0,0,0,.1-.6,1.3,1.3,0,0,0-.1-.6l-.4-.2c-.2,0-.3.1-.4.3a1.2,1.2,0,0,0-.2.7h-1.1a1.6,1.6,0,0,1,.2-1,1.3,1.3,0,0,1,.6-.7,1.6,1.6,0,0,1,.9-.3,1.7,1.7,0,0,1,1.3.5,1.6,1.6,0,0,1,.4,1.2,3.6,3.6,0,0,1-.2,1,7.7,7.7,0,0,1-.9,1.3l-.8,1.1h2Z"/><path class="cls-2" d="M178,17a3.6,3.6,0,0,1-.5,1.9,1.4,1.4,0,0,1-1.2.6,1.5,1.5,0,0,1-1.3-.6,3.4,3.4,0,0,1-.4-1.8V16a3.2,3.2,0,0,1,.4-1.9,1.6,1.6,0,0,1,1.3-.7,1.5,1.5,0,0,1,1.2.7,3,3,0,0,1,.5,1.8Zm-1.2-1.2a3.4,3.4,0,0,0-.1-1.1c-.1-.2-.2-.3-.4-.3s-.6.4-.6,1.3v1.4a3.1,3.1,0,0,0,.1,1.1.5.5,0,0,0,.5.3c.2,0,.3-.1.4-.3a2.5,2.5,0,0,0,.1-1Z"/><path class="cls-2" d="M182.2,19.4h-3.5v-.8l1.6-2a3.5,3.5,0,0,0,.5-.8,1.3,1.3,0,0,0,.1-.6,1.3,1.3,0,0,0-.1-.6l-.4-.2c-.2,0-.3.1-.4.3a1.2,1.2,0,0,0-.2.7h-1.1a1.6,1.6,0,0,1,.2-1,1.3,1.3,0,0,1,.6-.7,1.6,1.6,0,0,1,.9-.3,1.7,1.7,0,0,1,1.3.5,2.1,2.1,0,0,1,.4,1.2,1.9,1.9,0,0,1-.3,1,3.8,3.8,0,0,1-.8,1.3l-.8,1.1h2Z"/><path class="cls-2" d="M185.5,19.4h-1.2V14.9l-1.1.4v-.9l2.1-.9h.2Z"/><path class="cls-2" d="M191.1,17.4h-1.9v-1h1.9Z"/><path class="cls-2" d="M196.5,17.9c0-.3,0-.5-.1-.6l-.7-.4a3.2,3.2,0,0,1-1.3-.7,2.1,2.1,0,0,1-.4-1.1,1.4,1.4,0,0,1,.6-1.2,1.9,1.9,0,0,1,1.3-.5,1.7,1.7,0,0,1,1,.3.9.9,0,0,1,.6.6,1.6,1.6,0,0,1,.2,1h-1.1a1.4,1.4,0,0,0-.2-.7l-.5-.2-.5.2a.8.8,0,0,0-.2.5.5.5,0,0,0,.2.4c.1.2.4.3.7.4a4.9,4.9,0,0,1,1.3.8,2.1,2.1,0,0,1,.3,1.2,1.6,1.6,0,0,1-.4,1.2,2.1,2.1,0,0,1-1.4.4l-1-.2a2.7,2.7,0,0,1-.8-.7,3,3,0,0,1-.2-1h1.2a.8.8,0,0,0,.2.7c.1.2.3.2.6.2A.5.5,0,0,0,196.5,17.9Z"/><path class="cls-2" d="M200.2,19.5a1.9,1.9,0,0,1-1.3-.5,2,2,0,0,1-.5-1.5v-.4a2.5,2.5,0,0,1,.4-1.6,1.5,1.5,0,0,1,1.3-.5,1.4,1.4,0,0,1,1.3.5,2.2,2.2,0,0,1,.4,1.5v.6h-2.3a1.2,1.2,0,0,0,.2.7.7.7,0,0,0,.6.2,1.7,1.7,0,0,0,1-.3l.4.6a1,1,0,0,1-.6.5Zm-.7-2.7h1.2a.8.8,0,0,0-.2-.6c0-.1-.2-.2-.4-.2l-.4.2A1.4,1.4,0,0,0,199.5,16.8Z"/><path class="cls-2" d="M205.9,17.4a2.7,2.7,0,0,1-.4,1.5,1.1,1.1,0,0,1-1.1.6.9.9,0,0,1-.8-.4v2h-1.2V15h1.1v.4a1.2,1.2,0,0,1,.9-.4c.5,0,.9.1,1.1.5a2.7,2.7,0,0,1,.4,1.5Zm-1.2-.3a2.2,2.2,0,0,0-.1-.9.6.6,0,0,0-1,0v2.1c.1.2.3.2.5.2s.4,0,.5-.2a2.2,2.2,0,0,0,.1-.9Z"/><path class="cls-2" d="M207.9,14v1h.6v.9h-.6v2.2c0,.1,0,.3.1.3s.1.1.2.1h.3v.9h-.6c-.8,0-1.2-.4-1.2-1.3V15.9h-.5V15h.5V14Z"/><path class="cls-2" d="M209.1,13.9a.5.5,0,0,1,.2-.4l.4-.2.5.2c.1.1.1.2.1.4s0,.3-.1.4-.3.2-.5.2-.3,0-.4-.2A.5.5,0,0,1,209.1,13.9Zm1.2,5.5h-1.2V15h1.2Z"/><path class="cls-2" d="M213,19.5a1.8,1.8,0,0,1-1.9-2v-.4a2.5,2.5,0,0,1,.4-1.6,1.5,1.5,0,0,1,1.3-.5,1.4,1.4,0,0,1,1.3.5,2.2,2.2,0,0,1,.4,1.5v.6h-2.3a1.2,1.2,0,0,0,.2.7.7.7,0,0,0,.6.2,1.7,1.7,0,0,0,1-.3l.4.6a1,1,0,0,1-.6.5Zm-.8-2.7h1.2a.8.8,0,0,0-.2-.6c0-.1-.2-.2-.4-.2a.5.5,0,0,0-.4.2A1.4,1.4,0,0,0,212.2,16.8Z"/><path class="cls-2" d="M216.2,15v.4a1.2,1.2,0,0,1,1-.4,1.1,1.1,0,0,1,.9.5,1.4,1.4,0,0,1,1.1-.5q1,0,1.2,1.5v2.9h-1.2V16.6a.7.7,0,0,0-.1-.5l-.4-.2c-.2,0-.3.1-.4.4h0v3h-1.2V16.6a.7.7,0,0,0-.1-.5c0-.1-.2-.2-.3-.2a.5.5,0,0,0-.5.3v3.2h-1.1V15Z"/><path class="cls-2" d="M224.7,17.4a3.5,3.5,0,0,1-.3,1.6,1.4,1.4,0,0,1-1.1.5,1.1,1.1,0,0,1-.9-.5v.4h-1.1V13.2h1.1v2.2a1.1,1.1,0,0,1,.9-.4,1.2,1.2,0,0,1,1.1.5,3.1,3.1,0,0,1,.3,1.5Zm-1.1-.3a1.4,1.4,0,0,0-.2-.9c-.1-.2-.2-.3-.4-.3a.7.7,0,0,0-.6.3v2a.6.6,0,0,0,.6.3c.2,0,.3,0,.4-.2a1.3,1.3,0,0,0,.2-.8Z"/><path class="cls-2" d="M227.6,16.1h-.4a.8.8,0,0,0-.7.4v2.9h-1.1V15h1.1v.5a.7.7,0,0,1,.8-.5h.3Z"/><path class="cls-2" d="M229.8,19.5a1.9,1.9,0,0,1-1.3-.5,2,2,0,0,1-.5-1.5v-.4a2.5,2.5,0,0,1,.4-1.6,1.5,1.5,0,0,1,1.3-.5,1.4,1.4,0,0,1,1.3.5,3,3,0,0,1,.4,1.5v.6h-2.3a1.2,1.2,0,0,0,.2.7.7.7,0,0,0,.6.2,1.7,1.7,0,0,0,1-.3l.4.6a1,1,0,0,1-.6.5Zm-.7-2.7h1.2a.8.8,0,0,0-.2-.6c0-.1-.2-.2-.4-.2l-.4.2A1.4,1.4,0,0,0,229.1,16.8Z"/><path class="cls-2" d="M233.8,17.1a2.4,2.4,0,0,1,.4-1.6,1,1,0,0,1,1-.5,1.1,1.1,0,0,1,.9.4V13.2h1.1v6.2h-1V19a1.1,1.1,0,0,1-.9.5,1.2,1.2,0,0,1-1-.5,2.5,2.5,0,0,1-.4-1.6Zm1.1.3a2,2,0,0,0,.2.9c.1.2.2.2.5.2s.3-.1.5-.3v-2a.5.5,0,0,0-.5-.3.5.5,0,0,0-.5.3,1.4,1.4,0,0,0-.2.9Z"/><path class="cls-2" d="M239.8,19.5a1.7,1.7,0,0,1-1.3-.5,2,2,0,0,1-.5-1.5v-.4a2.5,2.5,0,0,1,.4-1.6,1.9,1.9,0,0,1,2.6,0,3,3,0,0,1,.4,1.5v.6h-2.3a1.2,1.2,0,0,0,.2.7c.1.2.3.2.6.2a1.7,1.7,0,0,0,1-.3l.4.6a1,1,0,0,1-.6.5Zm-.7-2.7h1.2c-.1-.3-.1-.5-.2-.6a.5.5,0,0,0-.4-.2l-.4.2A1.4,1.4,0,0,0,239.1,16.8Z"/><path class="cls-2" d="M247.4,19.4h-3.5v-.8l1.6-2c.2-.3.4-.5.4-.8a1.4,1.4,0,0,0,.2-.6c0-.2-.1-.4-.1-.6l-.4-.2a.5.5,0,0,0-.5.3c-.1.1-.1.4-.1.7h-1.2a3,3,0,0,1,.2-1,2.3,2.3,0,0,1,.7-.7,1.2,1.2,0,0,1,.9-.3,1.7,1.7,0,0,1,1.2.5,1.6,1.6,0,0,1,.4,1.2,1.8,1.8,0,0,1-.2,1,4.4,4.4,0,0,1-.9,1.3l-.7,1.1h2Z"/><path class="cls-2" d="M251.5,17a3.6,3.6,0,0,1-.4,1.9,1.5,1.5,0,0,1-1.3.6,1.4,1.4,0,0,1-1.2-.6,3.5,3.5,0,0,1-.5-1.8V16a3.2,3.2,0,0,1,.4-1.9,1.7,1.7,0,0,1,1.3-.7,1.6,1.6,0,0,1,1.3.7,3,3,0,0,1,.4,1.8Zm-1.1-1.2a3.1,3.1,0,0,0-.2-1.1c-.1-.2-.2-.3-.4-.3s-.5.4-.6,1.3v1.4a2.7,2.7,0,0,0,.2,1.1c.1.2.2.3.4.3s.3-.1.4-.3a2.2,2.2,0,0,0,.2-1Z"/><path class="cls-2" d="M255.8,19.4h-3.5v-.8l1.6-2,.4-.8a1.4,1.4,0,0,0,.2-.6,1.4,1.4,0,0,0-.2-.6l-.3-.2a.5.5,0,0,0-.5.3,1.2,1.2,0,0,0-.2.7h-1.1a3,3,0,0,1,.2-1,2.3,2.3,0,0,1,.7-.7,1.2,1.2,0,0,1,.9-.3,1.7,1.7,0,0,1,1.2.5,1.6,1.6,0,0,1,.4,1.2,1.8,1.8,0,0,1-.2,1,7.7,7.7,0,0,1-.9,1.3l-.7,1.1h2Z"/><path class="cls-2" d="M259.2,13.5v.9h0a1.8,1.8,0,0,0-1.1.4,1.8,1.8,0,0,0-.4,1.1,1,1,0,0,1,.9-.4,1.2,1.2,0,0,1,1,.5,2.4,2.4,0,0,1,.4,1.5,3,3,0,0,1-.2,1,2.2,2.2,0,0,1-.6.7,1.6,1.6,0,0,1-.9.3,1.5,1.5,0,0,1-1.3-.6,3.5,3.5,0,0,1-.5-1.8v-.4a4.3,4.3,0,0,1,.3-1.7,2.4,2.4,0,0,1,2.2-1.5Zm-1,2.9-.3.2-.3.3v.4a2,2,0,0,0,.2.9.5.5,0,0,0,.5.3.5.5,0,0,0,.4-.3,1.2,1.2,0,0,0,.2-.7,1.9,1.9,0,0,0-.2-.8A.5.5,0,0,0,258.2,16.4Z"/><path class="cls-2" d="M126.6.1V6.3a2.9,2.9,0,0,1-.8,2.2,2.9,2.9,0,0,1-2.2.7,2.9,2.9,0,0,1-2.2-.8,2.8,2.8,0,0,1-.7-2.1V.1h1.8V6.3a1.6,1.6,0,0,0,.3,1.1c.1.2.4.3.8.3s.8-.1.9-.3a1.6,1.6,0,0,0,.3-1.1V.1Z"/><path class="cls-2" d="M134.2,9.1h-1.8l-2.6-5.9V9.1H128V.1h1.8L132.4,6V.1h1.8Z"/><path class="cls-2" d="M137.6,9.1h-1.9V.1h1.9Z"/><path class="cls-2" d="M142,6.6,143.5.1h2l-2.6,9H141l-2.5-9h2Z"/><path class="cls-2" d="M151,5.2h-2.8V7.6h3.3V9.1h-5.1V.1h5.1V1.6h-3.3V3.7H151Z"/><path class="cls-2" d="M155.2,5.8h-.8V9.1h-1.9V.1h2.9a3.3,3.3,0,0,1,2.1.7,2.8,2.8,0,0,1,.8,2A2.6,2.6,0,0,1,157,5.3L158.5,9h-1.9Zm-.8-1.5h1a.9.9,0,0,0,.8-.4,1.2,1.2,0,0,0,.3-.9c0-.9-.4-1.4-1.1-1.4h-1Z"/><path class="cls-2" d="M163.3,6.7a1.1,1.1,0,0,0-.3-.8l-1-.6a3.9,3.9,0,0,1-1.9-1.2,2.3,2.3,0,0,1-.6-1.6,1.9,1.9,0,0,1,.8-1.8,2.7,2.7,0,0,1,2-.7,3.7,3.7,0,0,1,1.5.3l1,1a3.7,3.7,0,0,1,.3,1.5h-1.8a1.3,1.3,0,0,0-.3-1,.8.8,0,0,0-.7-.3,1.1,1.1,0,0,0-.8.3,1.2,1.2,0,0,0-.2.7.9.9,0,0,0,.3.7,2.9,2.9,0,0,0,1,.6A3.9,3.9,0,0,1,164.5,5a2.4,2.4,0,0,1,.6,1.7,2.1,2.1,0,0,1-.7,1.8,2.8,2.8,0,0,1-2.1.7,2.6,2.6,0,0,1-1.5-.4,2.3,2.3,0,0,1-1.2-1,3.3,3.3,0,0,1-.4-1.5h1.9a1.8,1.8,0,0,0,.3,1.1,1.2,1.2,0,0,0,.9.3C163,7.7,163.3,7.4,163.3,6.7Z"/><path class="cls-2" d="M168.2,9.1h-1.8V.1h1.8Z"/><path class="cls-2" d="M169.7,9.1V.1h2.4a3.6,3.6,0,0,1,2.5,1,4,4,0,0,1,.9,2.7V5.3a4.1,4.1,0,0,1-.9,2.8,3.6,3.6,0,0,1-2.6,1Zm1.8-7.5v6h.6a1.4,1.4,0,0,0,1.2-.5,2.4,2.4,0,0,0,.4-1.6V3.9a4.2,4.2,0,0,0-.3-1.8,1.7,1.7,0,0,0-1.2-.5Z"/><path class="cls-2" d="M181,7.2h-2.5L178,9.1h-1.9l2.8-9h1.7l2.8,9h-1.9Zm-2.1-1.5h1.7l-.9-3.2Z"/><path class="cls-2" d="M184.2,9.1V.1h2.4a3.6,3.6,0,0,1,2.5,1,4,4,0,0,1,.9,2.7V5.3a4.1,4.1,0,0,1-.9,2.8,3.6,3.6,0,0,1-2.6,1ZM186,1.6v6h.6a1.4,1.4,0,0,0,1.2-.5,2.4,2.4,0,0,0,.4-1.6V3.9a4.2,4.2,0,0,0-.3-1.8,1.4,1.4,0,0,0-1.2-.5Z"/><path class="cls-2" d="M198.5,7.2h-2.4l-.5,1.9h-1.9l2.8-9h1.6l2.8,9H199Zm-2.1-1.5h1.7l-.8-3.2Z"/><path class="cls-2" d="M207.7,6.1a2.9,2.9,0,0,1-.9,2.3,2.9,2.9,0,0,1-2.2.8,2.6,2.6,0,0,1-2.3-1,4.1,4.1,0,0,1-.8-2.8V3.8a4.1,4.1,0,0,1,.8-2.8,2.8,2.8,0,0,1,2.3-1,3.4,3.4,0,0,1,2.3.8,4,4,0,0,1,.8,2.4h-1.8a1.9,1.9,0,0,0-.3-1.3,1.1,1.1,0,0,0-1-.4,1.1,1.1,0,0,0-1,.5,3.4,3.4,0,0,0-.3,1.7V5.4a3.6,3.6,0,0,0,.3,1.8,1.1,1.1,0,0,0,1,.5,1.3,1.3,0,0,0,1-.3,2.3,2.3,0,0,0,.3-1.3Z"/><path class="cls-2" d="M211.5,5.8h-.9V9.1h-1.8V.1h2.9a3.3,3.3,0,0,1,2.1.7,2.8,2.8,0,0,1,.8,2,2.6,2.6,0,0,1-1.3,2.5L214.8,9h-1.9Zm-.9-1.5h1.1a.9.9,0,0,0,.8-.4c.2-.2.2-.5.2-.9s-.3-1.4-1-1.4h-1.1Z"/><path class="cls-2" d="M220.4,5.2h-2.8V7.6h3.3V9.1h-5.1V.1h5.1V1.6h-3.3V3.7h2.8Z"/><path class="cls-2" d="M222,9.1V.1h2.3a3.4,3.4,0,0,1,2.5,1,3.6,3.6,0,0,1,1,2.7V5.3a4.1,4.1,0,0,1-.9,2.8,3.8,3.8,0,0,1-2.6,1Zm1.8-7.5v6h.5a1.6,1.6,0,0,0,1.3-.5,3.1,3.1,0,0,0,.4-1.6V3.9a3,3,0,0,0-.4-1.8,1.4,1.4,0,0,0-1.2-.5Z"/><path class="cls-2" d="M231,9.1h-1.8V.1H231Z"/><path class="cls-2" d="M238.1,1.6h-2.2V9.1h-1.8V1.6h-2.2V.1h6.2Z"/><path class="cls-2" d="M242.7,7.2h-2.5l-.5,1.9h-1.9l2.8-9h1.7l2.8,9h-1.9Zm-2.1-1.5h1.7l-.8-3.2Z"/><path class="cls-2" d="M245.9,9.1V.1h2.4a3.4,3.4,0,0,1,2.5,1,4.6,4.6,0,0,1,1,2.7V5.3a4.1,4.1,0,0,1-1,2.8,3.6,3.6,0,0,1-2.5,1Zm1.8-7.5v6h.6a1.7,1.7,0,0,0,1.3-.5,3.2,3.2,0,0,0,.3-1.6V3.9a4.2,4.2,0,0,0-.3-1.8,1.4,1.4,0,0,0-1.2-.5Z"/><path class="cls-2" d="M257.2,7.2h-2.5l-.4,1.9h-2l2.8-9h1.7l2.8,9h-1.9Zm-2.1-1.5h1.7L256,2.5Z"/><path class="cls-2" d="M125.1,51.2h-2.4l-.8,1.8H120l4.3-8.9h1.6l1.2,8.9h-1.9Zm-1.7-1.5H125l-.3-3.2Z"/><path class="cls-2" d="M130.7,50.5l2.5-6.4h2L131.3,53h-1.8l-1.1-8.9h1.9Z"/><path class="cls-2" d="M138.5,51.2h-2.3l-.8,1.8h-1.9l4.2-8.9h1.6l1.2,8.9h-1.8Zm-1.7-1.5h1.6l-.2-3.2Z"/><path class="cls-2" d="M147.4,53h-1.7l-1.5-5.9L143.1,53h-1.7l1.5-8.9h1.7l1.6,5.9,1-5.9H149Z"/><path class="cls-2" d="M151,51.5h3.5l-.3,1.5h-5.6l.2-1.2,4.6-6.2h-3.5l.3-1.5h5.5l-.2,1.1Z"/><path class="cls-2" d="M159.9,51.2h-2.4l-.7,1.8h-1.9l4.2-8.9h1.6l1.2,8.9h-1.8Zm-1.7-1.5h1.6l-.3-3.2Z"/><path class="cls-2" d="M162.8,53l1.5-8.9h2.2a2.8,2.8,0,0,1,1.6.5,2.4,2.4,0,0,1,1,1.4,3.9,3.9,0,0,1,.1,1.9l-.2,1.3a4.3,4.3,0,0,1-1.3,2.8,3.2,3.2,0,0,1-2.5,1Zm3-7.4-1,5.9h.4a1.6,1.6,0,0,0,1.4-.5,3.4,3.4,0,0,0,.7-1.7l.2-1.4c0-.5.1-.9.1-1.1a1.9,1.9,0,0,0-.4-.9c-.1-.2-.4-.3-.8-.3Z"/><path class="cls-2" d="M174,51.2h-2.4l-.7,1.8h-2l4.3-8.9h1.6L176,53h-1.9Zm-1.7-1.5h1.6l-.3-3.2Z"/><path class="cls-2" d="M124.2,29.6l-.2.2a1.8,1.8,0,0,1-1.5.6,2,2,0,0,1-1.5-.6,2.9,2.9,0,0,1-.5-1.7V27a3,3,0,0,1,.5-1.8,1.7,1.7,0,0,1,1.4-.6,2.5,2.5,0,0,1,1.3.4,2.5,2.5,0,0,1,.5,1.3h-.7l-.3-.8a1.1,1.1,0,0,0-.8-.3,1,1,0,0,0-.9.4,2.3,2.3,0,0,0-.3,1.3V28a1.7,1.7,0,0,0,.4,1.3,1.1,1.1,0,0,0,.9.5c.4,0,.7-.1.8-.3h.2V28.1h-1.1v-.6h1.8Z"/><path class="cls-2" d="M126.7,30.4a1.3,1.3,0,0,1-1.1-.5,2,2,0,0,1-.5-1.4V28a2.6,2.6,0,0,1,.4-1.4,1.5,1.5,0,0,1,2.3-.1,2.8,2.8,0,0,1,.3,1.5v.4h-2.3a1.3,1.3,0,0,0,.3,1,.8.8,0,0,0,.7.3h.5a.8.8,0,0,0,.4-.4l.4.4A1.4,1.4,0,0,1,126.7,30.4Zm0-3.8a.9.9,0,0,0-.7.3,2,2,0,0,0-.2.9h1.7c-.1-.4-.1-.6-.3-.8A.5.5,0,0,0,126.7,26.6Z"/><path class="cls-2" d="M131,29.2a.8.8,0,0,0-.1-.4l-.7-.3-.8-.4-.3-.4a.7.7,0,0,1-.1-.5.9.9,0,0,1,.4-.8,1.3,1.3,0,0,1,.9-.4,1.8,1.8,0,0,1,1,.4,1.3,1.3,0,0,1,.4.9H131c0-.2-.1-.3-.2-.5l-.5-.2-.5.2c-.1.1-.1.2-.1.4s0,.3.1.3l.6.4a2.1,2.1,0,0,1,1,.6.8.8,0,0,1,.3.7.9.9,0,0,1-.4.8,1.2,1.2,0,0,1-1,.4,1.5,1.5,0,0,1-1-.4,1.3,1.3,0,0,1-.4-1h.7c0,.3,0,.5.2.6l.5.2a.6.6,0,0,0,.5-.2C131,29.5,131,29.4,131,29.2Z"/><path class="cls-2" d="M133.5,25.1v1h.7v.6h-.7v2.9l.3.2h.3v.6h-.5a.6.6,0,0,1-.6-.3,1.1,1.1,0,0,1-.3-.8V26.7h-.6v-.6h.6v-1Z"/><path class="cls-2" d="M135.8,25a.4.4,0,0,1-.1.3h-.6c0-.1-.1-.2-.1-.3s.1-.2.1-.3h.6A.4.4,0,0,1,135.8,25Zm-.1,5.3h-.6V26.1h.6Z"/><path class="cls-2" d="M136.7,28a2,2,0,0,1,.5-1.4,1.1,1.1,0,0,1,1.1-.6,1.4,1.4,0,0,1,1.2.6,2,2,0,0,1,.4,1.4v.4a2,2,0,0,1-.4,1.4,1.5,1.5,0,0,1-2.3.1,2.2,2.2,0,0,1-.5-1.4Zm.7.4a2.5,2.5,0,0,0,.2,1,.8.8,0,0,0,.7.4c.6,0,.9-.4,1-1.3V28a1.7,1.7,0,0,0-.3-1,.8.8,0,0,0-1.4,0,3,3,0,0,0-.2,1Zm1.2-4h.9l-1,1.1h-.6Z"/><path class="cls-2" d="M141.5,26.1v.5a1.2,1.2,0,0,1,1-.6q1.2,0,1.2,1.5v2.8H143V27.6a1,1,0,0,0-.2-.7c-.1-.2-.3-.2-.5-.2h-.4a1,1,0,0,0-.4.5v3h-.6V26.1Z"/><path class="cls-2" d="M147.4,30.3h-.7V24.7h.7Z"/><path class="cls-2" d="M149.2,26.1v.5a1.4,1.4,0,0,1,1.1-.6c.7,0,1.1.5,1.1,1.5v2.8h-.7V27.6c0-.4,0-.6-.2-.7s-.2-.2-.4-.2h-.5l-.3.5v3h-.7V26.1Z"/><path class="cls-2" d="M154.5,29.2l-.2-.4-.6-.3-.8-.4c-.2-.1-.3-.2-.3-.4a.8.8,0,0,1-.2-.5,1.2,1.2,0,0,1,.4-.8,1.8,1.8,0,0,1,1-.4,1.3,1.3,0,0,1,.9.4,1,1,0,0,1,.4.9h-.7a.6.6,0,0,0-.2-.5.5.5,0,0,0-.4-.2l-.5.2a.5.5,0,0,0-.2.4,1,1,0,0,0,.1.3l.7.4,1,.6a.8.8,0,0,1,.3.7,1.2,1.2,0,0,1-.4.8,1.3,1.3,0,0,1-1,.4,1.8,1.8,0,0,1-1.1-.4,1.8,1.8,0,0,1-.4-1h.7a.8.8,0,0,0,.2.6,1.1,1.1,0,0,0,.6.2l.5-.2A.5.5,0,0,0,154.5,29.2Z"/><path class="cls-2" d="M157,25.1v1h.6v.6H157v2.6c0,.1,0,.3.1.3a.2.2,0,0,0,.2.2h.3v.6h-.5a.9.9,0,0,1-.6-.3,1.9,1.9,0,0,1-.2-.8V26.7h-.6v-.6h.6v-1Z"/><path class="cls-2" d="M159.3,25c0,.1-.1.2-.1.3h-.6a.5.5,0,0,1,0-.6h.6C159.2,24.8,159.3,24.9,159.3,25Zm-.1,5.3h-.7V26.1h.7Z"/><path class="cls-2" d="M161.2,25.1v1h.6v.6h-.6v2.6c0,.1,0,.3.1.3s.1.2.3.2h.2v.6h-.4a.9.9,0,0,1-.7-.3,1.9,1.9,0,0,1-.2-.8V26.7h-.6v-.6h.6v-1Z"/><path class="cls-2" d="M164.8,29.9a1.1,1.1,0,0,1-1,.5,1,1,0,0,1-.8-.4,2.1,2.1,0,0,1-.3-1.2V26.1h.6v2.7c0,.6.2,1,.6,1a1,1,0,0,0,.9-.6V26.1h.7v4.2h-.7Z"/><path class="cls-2" d="M168,29.8l.5-.2c.2-.2.2-.4.3-.6h.6a1.4,1.4,0,0,1-1.4,1.4,1.7,1.7,0,0,1-1.2-.5,2.1,2.1,0,0,1-.4-1.5V28a2.2,2.2,0,0,1,.4-1.5A1.7,1.7,0,0,1,168,26a1.5,1.5,0,0,1,1,.4,1.6,1.6,0,0,1,.4,1.2h-.6c-.1-.4-.1-.6-.3-.7a.5.5,0,0,0-.5-.3.9.9,0,0,0-.7.3,2.5,2.5,0,0,0-.2,1v.5a2.7,2.7,0,0,0,.2,1.1A.8.8,0,0,0,168,29.8Z"/><path class="cls-2" d="M171,25a.4.4,0,0,1-.1.3h-.6c0-.1-.1-.2-.1-.3s.1-.2.1-.3h.6A.4.4,0,0,1,171,25Zm0,5.3h-.7V26.1h.7Z"/><path class="cls-2" d="M171.9,28a2,2,0,0,1,.5-1.4,1.4,1.4,0,0,1,1.1-.6,1.4,1.4,0,0,1,1.2.6,2,2,0,0,1,.5,1.4v.4a2,2,0,0,1-.5,1.4,1.4,1.4,0,0,1-1.1.6,1.7,1.7,0,0,1-1.2-.5,2.2,2.2,0,0,1-.5-1.4Zm.7.4a1.5,1.5,0,0,0,.3,1,.7.7,0,0,0,.7.4c.6,0,.9-.4.9-1.3V28a1.7,1.7,0,0,0-.3-1,.8.8,0,0,0-.7-.4.8.8,0,0,0-.6.4,1.7,1.7,0,0,0-.3,1Z"/><path class="cls-2" d="M176.7,26.1v.5a1.3,1.3,0,0,1,1.1-.6c.7,0,1.1.5,1.1,1.5v2.8h-.7V27.6a1,1,0,0,0-.2-.7c-.1-.2-.2-.2-.5-.2h-.4a.9.9,0,0,0-.3.5v3h-.7V26.1Z"/><path class="cls-2" d="M182.1,30.3a2,2,0,0,1-.1-.5,1,1,0,0,1-.9.6,1.2,1.2,0,0,1-.9-.3,1.6,1.6,0,0,1-.3-.9,1.4,1.4,0,0,1,.4-1.1,2.1,2.1,0,0,1,1.2-.3h.5v-.5a.8.8,0,0,0-.2-.5l-.5-.2-.5.2a.8.8,0,0,0-.2.5h-.7a1.4,1.4,0,0,1,.2-.6l.5-.5.8-.2a1.3,1.3,0,0,1,.9.4,1,1,0,0,1,.4.9v2.1a1.9,1.9,0,0,0,.1.8h-.7Zm-.9-.5.5-.2.3-.3v-1h-.4a1.1,1.1,0,0,0-.8.2.8.8,0,0,0-.2.6.7.7,0,0,0,.1.5Z"/><path class="cls-2" d="M184.5,30.3h-.7V24.4h.7Z"/><path class="cls-2" d="M187.5,27.5a.4.4,0,0,1,.1-.3h.6a.5.5,0,0,1,0,.6h-.6A.4.4,0,0,1,187.5,27.5Z"/><path class="cls-2" d="M191.4,30.3V24.7h1.3a1.8,1.8,0,0,1,1.5.6,2.4,2.4,0,0,1,.6,1.7v1a2.4,2.4,0,0,1-.6,1.7,2,2,0,0,1-1.6.6Zm.7-5v4.4h.5a1.6,1.6,0,0,0,1.1-.4,1.7,1.7,0,0,0,.4-1.3V27a1.7,1.7,0,0,0-.4-1.3,1.1,1.1,0,0,0-1-.4Z"/><path class="cls-2" d="M195.7,28a2,2,0,0,1,.4-1.4,1.5,1.5,0,0,1,2.4,0,2,2,0,0,1,.4,1.4v.4a2,2,0,0,1-.4,1.4,1.4,1.4,0,0,1-1.2.6,1.7,1.7,0,0,1-1.2-.5,2.1,2.1,0,0,1-.4-1.4Zm.7.4a1.5,1.5,0,0,0,.2,1,.8.8,0,0,0,.7.4c.6,0,.9-.4.9-1.3V28a3,3,0,0,0-.2-1,.8.8,0,0,0-1.4,0,1.6,1.6,0,0,0-.2,1Z"/><path class="cls-2" d="M201.3,29.8l.5-.2a.7.7,0,0,0,.2-.6h.7a1.4,1.4,0,0,1-1.4,1.4,1.7,1.7,0,0,1-1.2-.5,2.1,2.1,0,0,1-.4-1.5V28a2.2,2.2,0,0,1,.4-1.5,1.7,1.7,0,0,1,1.2-.5,1.8,1.8,0,0,1,1,.4,2.1,2.1,0,0,1,.4,1.2H202c0-.4,0-.6-.2-.7a.5.5,0,0,0-.5-.3.8.8,0,0,0-.7.3,2.5,2.5,0,0,0-.2,1v.5c0,.5,0,.9.2,1.1A.8.8,0,0,0,201.3,29.8Z"/><path class="cls-2" d="M205,30.4a1.7,1.7,0,0,1-1.2-.5,2,2,0,0,1-.4-1.4V28a2,2,0,0,1,.4-1.4,1.3,1.3,0,0,1,1.1-.6,1.3,1.3,0,0,1,1.1.5,2.1,2.1,0,0,1,.4,1.5v.4h-2.3a2.2,2.2,0,0,0,.2,1,.9.9,0,0,0,.7.3h.6c.1-.1.3-.2.4-.4l.4.4A1.5,1.5,0,0,1,205,30.4Zm-.1-3.8a.7.7,0,0,0-.6.3,2,2,0,0,0-.2.9h1.6a1.5,1.5,0,0,0-.2-.8A.6.6,0,0,0,204.9,26.6Z"/><path class="cls-2" d="M207.9,26.1v.5a1.2,1.2,0,0,1,1-.6c.8,0,1.1.5,1.2,1.5v2.8h-.7V27.6a1,1,0,0,0-.2-.7c-.1-.2-.3-.2-.5-.2h-.4a1,1,0,0,0-.4.5v3h-.6V26.1Z"/><path class="cls-2" d="M212.6,29.8l.5-.2a1.4,1.4,0,0,0,.2-.6h.7a1.4,1.4,0,0,1-1.4,1.4,1.7,1.7,0,0,1-1.2-.5,2.1,2.1,0,0,1-.4-1.5V28a2.2,2.2,0,0,1,.4-1.5,1.5,1.5,0,0,1,1.2-.5,1.8,1.8,0,0,1,1,.4,2.1,2.1,0,0,1,.4,1.2h-.7a1,1,0,0,0-.2-.7.5.5,0,0,0-.5-.3.8.8,0,0,0-.7.3,1.5,1.5,0,0,0-.2,1v.5c0,.5,0,.9.2,1.1A.8.8,0,0,0,212.6,29.8Z"/><path class="cls-2" d="M215.6,25a.4.4,0,0,1-.1.3h-.6c0-.1-.1-.2-.1-.3s.1-.2.1-.3h.6A.4.4,0,0,1,215.6,25Zm-.1,5.3h-.6V26.1h.6Z"/><path class="cls-2" d="M218.8,30.3a2,2,0,0,1-.1-.5,1,1,0,0,1-.9.6,1.2,1.2,0,0,1-.9-.3,1.6,1.6,0,0,1-.3-.9,1.4,1.4,0,0,1,.4-1.1,2.1,2.1,0,0,1,1.2-.3h.5v-.5a.8.8,0,0,0-.2-.5.6.6,0,0,0-.5-.2l-.5.2a.8.8,0,0,0-.2.5h-.6a1.3,1.3,0,0,1,.1-.6c.2-.2.3-.4.6-.5l.7-.2a1.3,1.3,0,0,1,.9.4,1,1,0,0,1,.4.9v2.1a1.9,1.9,0,0,0,.1.8h-.7Zm-.9-.5.5-.2.3-.3v-1h-.4c-.3,0-.6,0-.7.2a.6.6,0,0,0-.3.6.7.7,0,0,0,.1.5Z"/><path class="cls-2" d="M222.2,28a2.6,2.6,0,0,1,.3-1.4,1.3,1.3,0,0,1,1.1-.6,1.1,1.1,0,0,1,.9.5V24.4h.7v5.9h-.6v-.5a1,1,0,0,1-.9.6,1.1,1.1,0,0,1-1-.5,2.2,2.2,0,0,1-.4-1.5Zm.7.4c0,.5,0,.8.2,1s.3.4.7.4.5-.2.7-.5V27.2c-.2-.4-.4-.5-.7-.5s-.6.1-.7.3-.2.5-.2,1Z"/><path class="cls-2" d="M227.8,30.4a1.7,1.7,0,0,1-1.2-.5,2,2,0,0,1-.4-1.4V28a2,2,0,0,1,.4-1.4,1.1,1.1,0,0,1,1.1-.6,1.3,1.3,0,0,1,1.1.5,2.7,2.7,0,0,1,.4,1.5v.4h-2.4a1.3,1.3,0,0,0,.3,1,.9.9,0,0,0,.7.3h.5l.5-.4.3.4A1.4,1.4,0,0,1,227.8,30.4Zm-.1-3.8a.6.6,0,0,0-.6.3c-.2.2-.2.5-.3.9h1.7a1.5,1.5,0,0,0-.2-.8A.7.7,0,0,0,227.7,26.6Z"/><path class="cls-2" d="M232.7,28.1v2.2H232V24.7h1.8a1.6,1.6,0,0,1,1.2.4,2,2,0,0,1,.4,1.3,1.5,1.5,0,0,1-.4,1.2,1.7,1.7,0,0,1-1.2.5Zm0-.6h1.1a.9.9,0,0,0,.7-.3,1.5,1.5,0,0,0,.2-.8,1.9,1.9,0,0,0-.2-.8.9.9,0,0,0-.7-.3h-1.1Z"/><path class="cls-2" d="M238,26.8h-.3a.7.7,0,0,0-.7.6v3h-.7V26.1h.7v.4a.8.8,0,0,1,.7-.5h.3Z"/><path class="cls-2" d="M240.2,30.4a1.4,1.4,0,0,1-1.2-.5,2,2,0,0,1-.5-1.4V28a2.6,2.6,0,0,1,.4-1.4,1.5,1.5,0,0,1,2.3-.1,2.8,2.8,0,0,1,.3,1.5v.4h-2.3a1.3,1.3,0,0,0,.3,1,.8.8,0,0,0,.7.3h.5l.5-.4.3.4A1.4,1.4,0,0,1,240.2,30.4Zm-.1-3.8a.9.9,0,0,0-.7.3,2,2,0,0,0-.2.9h1.7c-.1-.4-.1-.6-.3-.8A.5.5,0,0,0,240.1,26.6Z"/><path class="cls-2" d="M242.3,28a3.3,3.3,0,0,1,.3-1.5,1.4,1.4,0,0,1,1.1-.5,1,1,0,0,1,.9.6v-.5h.6v4.2a1.9,1.9,0,0,1-.4,1.2,1.5,1.5,0,0,1-1.1.4h-.7a.9.9,0,0,1-.6-.4l.3-.5a1.4,1.4,0,0,0,.9.5c.6,0,.9-.4.9-1v-.5a1.1,1.1,0,0,1-.9.5,1.4,1.4,0,0,1-1.1-.5,2.6,2.6,0,0,1-.3-1.4Zm.6.4a1.3,1.3,0,0,0,.3,1,.5.5,0,0,0,.6.4c.4,0,.6-.2.8-.6v-2a.7.7,0,0,0-.8-.5.6.6,0,0,0-.6.3c-.2.2-.2.5-.3,1Z"/><path class="cls-2" d="M248.1,26.8h-.4c-.3,0-.5.2-.7.6v3h-.7V26.1h.7v.4a.9.9,0,0,1,.8-.5h.3Z"/><path class="cls-2" d="M250.8,30.3c-.1-.1-.1-.2-.1-.5a1.2,1.2,0,0,1-.9.6,1.2,1.2,0,0,1-.9-.3,1.6,1.6,0,0,1-.3-.9,1.4,1.4,0,0,1,.4-1.1,2.1,2.1,0,0,1,1.2-.3h.5v-.5a.8.8,0,0,0-.2-.5l-.5-.2-.5.2a.8.8,0,0,0-.2.5h-.7a1.4,1.4,0,0,1,.2-.6,1.2,1.2,0,0,1,.5-.5l.7-.2a1.3,1.3,0,0,1,1,.4,1.2,1.2,0,0,1,.3.9v2.1a1.9,1.9,0,0,0,.2.8h-.7Zm-.9-.5.4-.2.4-.3v-1h-.4a1.1,1.1,0,0,0-.8.2.6.6,0,0,0-.3.6.8.8,0,0,0,.2.5A.6.6,0,0,0,249.9,29.8Z"/><path class="cls-2" d="M252.3,28a2,2,0,0,1,.4-1.4,1,1,0,0,1,1-.6,1.1,1.1,0,0,1,.9.5V24.4h.7v5.9h-.6v-.5a1.2,1.2,0,0,1-1,.6,1.2,1.2,0,0,1-1-.5,2.2,2.2,0,0,1-.4-1.5Zm.7.4a2.2,2.2,0,0,0,.2,1,.7.7,0,0,0,.7.4.8.8,0,0,0,.7-.5V27.2a.6.6,0,0,0-.7-.5.8.8,0,0,0-.7.3,2.2,2.2,0,0,0-.2,1Z"/><path class="cls-2" d="M256.3,28a2,2,0,0,1,.4-1.4,1.4,1.4,0,0,1,1.2-.6,1.3,1.3,0,0,1,1.1.6,2,2,0,0,1,.5,1.4v.4a2,2,0,0,1-.5,1.4,1.1,1.1,0,0,1-1.1.6,1.7,1.7,0,0,1-1.2-.5,2.1,2.1,0,0,1-.4-1.4Zm.6.4a1.5,1.5,0,0,0,.3,1,.8.8,0,0,0,.7.4c.6,0,.9-.4.9-1.3V28a3,3,0,0,0-.2-1,.8.8,0,0,0-1.4,0,1.7,1.7,0,0,0-.3,1Z"/><path class="cls-2" d="M121.4,38.6h-.7V33h.7Z"/><path class="cls-2" d="M123.2,34.4v.5a1.1,1.1,0,0,1,1-.5c.8,0,1.2.5,1.2,1.4v2.8h-.7V35.9a1.2,1.2,0,0,0-.2-.7c-.1-.2-.3-.2-.5-.2h-.4l-.4.5v3h-.6V34.4Z"/><path class="cls-2" d="M127.6,37.6l.8-3.2h.7l-1.2,4.2h-.6l-1.2-4.2h.7Z"/><path class="cls-2" d="M131.3,38.7a1.7,1.7,0,0,1-1.2-.5,1.7,1.7,0,0,1-.4-1.3v-.5a2.2,2.2,0,0,1,.4-1.5c.2-.4.6-.5,1.1-.5a1.2,1.2,0,0,1,1.1.4,2.7,2.7,0,0,1,.4,1.5v.4h-2.4a1.3,1.3,0,0,0,.3,1,.9.9,0,0,0,.7.3h.6l.4-.4.3.5A1.5,1.5,0,0,1,131.3,38.7Zm-.1-3.7-.6.2c-.2.2-.2.5-.2,1H132a2,2,0,0,0-.2-.9C131.7,35,131.5,35,131.2,35Z"/><path class="cls-2" d="M135.6,37.6a.5.5,0,0,0-.2-.4l-.6-.4a1.9,1.9,0,0,1-.8-.4.8.8,0,0,1-.4-.4c0-.1-.1-.3-.1-.4a1.3,1.3,0,0,1,.4-.9,1.7,1.7,0,0,1,1-.3,1.2,1.2,0,0,1,1.3,1.2h-.7c0-.2,0-.3-.2-.4a.4.4,0,0,0-.4-.2h-.5a.8.8,0,0,0-.2.4c0,.2.1.3.1.4l.6.3,1.1.6a.8.8,0,0,1,.2.7,1.2,1.2,0,0,1-.3.9,1.7,1.7,0,0,1-1,.3,1.4,1.4,0,0,1-1.1-.4,1,1,0,0,1-.4-.9h.7a.8.8,0,0,0,.2.5.8.8,0,0,0,.6.2h.5A.8.8,0,0,0,135.6,37.6Z"/><path class="cls-2" d="M138.1,33.4v1h.6V35h-.6v3h.6v.6h-.5a.6.6,0,0,1-.6-.3,1.9,1.9,0,0,1-.2-.8V35h-.6v-.6h.6v-1Z"/><path class="cls-2" d="M140.3,33.3c0,.2,0,.3-.1.3s-.1.1-.3.1-.2,0-.2-.1-.1-.1-.1-.3a.4.4,0,0,1,.1-.3h.5A.4.4,0,0,1,140.3,33.3Zm0,5.3h-.7V34.4h.7Z"/><path class="cls-2" d="M141.3,36.3a2.6,2.6,0,0,1,.3-1.4,1.2,1.2,0,0,1,1.1-.5.9.9,0,0,1,.9.5v-.5h.6v4.3a1.5,1.5,0,0,1-1.5,1.6l-.7-.2a.9.9,0,0,1-.6-.4l.3-.4a1.8,1.8,0,0,0,.9.4.8.8,0,0,0,.9-.9v-.6a1.1,1.1,0,0,1-1,.5,1.4,1.4,0,0,1-1-.5,2.6,2.6,0,0,1-.3-1.4Zm.6.4a3.1,3.1,0,0,0,.2,1.1.9.9,0,0,0,.7.3.9.9,0,0,0,.8-.5V35.5a.7.7,0,0,0-.8-.5.6.6,0,0,0-.6.3,1.5,1.5,0,0,0-.3,1Z"/><path class="cls-2" d="M147.5,38.6c-.1-.1-.1-.2-.1-.4a1.4,1.4,0,0,1-.9.5,1.1,1.1,0,0,1-1.2-1.2,1.2,1.2,0,0,1,.4-1,1.6,1.6,0,0,1,1.2-.4h.5v-.5a.8.8,0,0,0-.2-.5h-1c-.1.2-.2.3-.2.5h-.7a1.4,1.4,0,0,1,.2-.6,1.2,1.2,0,0,1,.5-.5h.7a1.3,1.3,0,0,1,1,.3,1.9,1.9,0,0,1,.4.9v2.1a2.8,2.8,0,0,0,.1.9h-.7Zm-.9-.5.4-.2.4-.3v-1H147l-.8.2a.7.7,0,0,0-.3.6.8.8,0,0,0,.2.5A.6.6,0,0,0,146.6,38.1Z"/><path class="cls-2" d="M150.6,38.1l.5-.2a.6.6,0,0,0,.3-.6h.6a1.4,1.4,0,0,1-1.4,1.4,1.7,1.7,0,0,1-1.2-.5,2,2,0,0,1-.4-1.4v-.5a2,2,0,0,1,.4-1.4,1.3,1.3,0,0,1,1.2-.5,1.2,1.2,0,0,1,1,.4,1.2,1.2,0,0,1,.4,1.1h-.6a.8.8,0,0,0-.3-.7c-.1-.2-.3-.2-.5-.2a.9.9,0,0,0-.7.3,2,2,0,0,0-.2.9v.6a2.2,2.2,0,0,0,.2,1A.9.9,0,0,0,150.6,38.1Z"/><path class="cls-2" d="M153.6,33.3c0,.2,0,.3-.1.3s-.1.1-.3.1h-.3V33h.6A.4.4,0,0,1,153.6,33.3Zm0,5.3h-.7V34.4h.7Z"/><path class="cls-2" d="M154.5,36.3a2.2,2.2,0,0,1,.5-1.4,1.3,1.3,0,0,1,1.2-.5,1.3,1.3,0,0,1,1.1.5,2,2,0,0,1,.5,1.4v.4a2.5,2.5,0,0,1-.5,1.5,1.6,1.6,0,0,1-1.1.5,1.7,1.7,0,0,1-1.2-.5,2.9,2.9,0,0,1-.5-1.4Zm.7.4a1.3,1.3,0,0,0,.3,1,.7.7,0,0,0,.7.4c.6,0,.9-.4.9-1.3v-.5a1.7,1.7,0,0,0-.3-1,.7.7,0,0,0-.6-.3.8.8,0,0,0-.7.3,1.7,1.7,0,0,0-.3,1Zm1.3-4h.8l-1,1.1h-.6Z"/><path class="cls-2" d="M159.3,34.4v.5a1,1,0,0,1,1-.5c.7,0,1.1.5,1.1,1.4v2.8h-.7V35.9c0-.3,0-.6-.2-.7s-.2-.2-.4-.2h-.5l-.3.5v3h-.7V34.4Z"/><path class="cls-2" d="M164.4,35.8c0-.1.1-.2.1-.3h.3c.2,0,.3,0,.3.1a.5.5,0,0,1,0,.6c0,.1-.1.1-.3.1h-.3C164.5,36,164.4,35.9,164.4,35.8Z"/><path class="cls-2" d="M169.9,37.5l1.3-4.5h.8l-1.8,5.6h-.6L167.9,33h.7Z"/><path class="cls-2" d="M173.5,33.3a.4.4,0,0,1-.1.3h-.6c-.1,0-.1-.1-.1-.3a.4.4,0,0,1,.1-.3h.6C173.4,33.1,173.5,33.2,173.5,33.3Zm-.1,5.3h-.7V34.4h.7Z"/><path class="cls-2" d="M175.2,34.4v.5a1.1,1.1,0,0,1,1-.5c.7,0,1.1.5,1.1,1.4v2.8h-.7V35.9c0-.3,0-.6-.1-.7s-.3-.2-.5-.2h-.5l-.3.5v3h-.7V34.4Z"/><path class="cls-2" d="M179.8,38.1l.6-.2a.8.8,0,0,0,.2-.6h.6a1.3,1.3,0,0,1-.4,1,1.2,1.2,0,0,1-1,.4,1.3,1.3,0,0,1-1.1-.5,2,2,0,0,1-.5-1.4v-.5a2,2,0,0,1,.5-1.4c.2-.4.6-.5,1.1-.5a1.1,1.1,0,0,1,1,.4,1.2,1.2,0,0,1,.4,1.1h-.6a1.2,1.2,0,0,0-.2-.7c-.1-.2-.3-.2-.6-.2a.6.6,0,0,0-.6.3,1.2,1.2,0,0,0-.3.9v.6a2.2,2.2,0,0,0,.2,1A.9.9,0,0,0,179.8,38.1Z"/><path class="cls-2" d="M184.2,38.3a1.5,1.5,0,0,1-1,.4c-.4,0-.7-.1-.8-.4a1.8,1.8,0,0,1-.3-1.1V34.4h.6v2.7c0,.7.2,1,.6,1a1,1,0,0,0,.9-.6V34.4h.7v4.2h-.7Z"/><path class="cls-2" d="M186.7,38.6H186V32.7h.7Z"/><path class="cls-2" d="M189.9,38.6a.8.8,0,0,0-.1-.4,1.1,1.1,0,0,1-.9.5,1.1,1.1,0,0,1-1.2-1.2,1.5,1.5,0,0,1,.4-1,1.6,1.6,0,0,1,1.2-.4h.5v-.5a.7.7,0,0,0-.1-.5h-1a.6.6,0,0,0-.2.5h-.7a.7.7,0,0,1,.2-.6,1.2,1.2,0,0,1,.5-.5h.7a1.7,1.7,0,0,1,1,.3,1.2,1.2,0,0,1,.3.9v2.1c0,.3.1.6.1.9h-.7Zm-.9-.5.5-.2q.3-.1.3-.3v-1h-.4l-.7.2a.7.7,0,0,0-.3.6.7.7,0,0,0,.1.5Z"/><path class="cls-2" d="M193.1,38.1l.5-.2a.8.8,0,0,0,.2-.6h.7a1.4,1.4,0,0,1-.5,1,1.1,1.1,0,0,1-.9.4,1.4,1.4,0,0,1-1.2-.5,2,2,0,0,1-.4-1.4v-.5a2,2,0,0,1,.4-1.4c.2-.4.6-.5,1.2-.5a1.3,1.3,0,0,1,1,.4,1.6,1.6,0,0,1,.4,1.1h-.7a1.2,1.2,0,0,0-.2-.7c-.1-.2-.3-.2-.5-.2s-.6.1-.7.3-.2.5-.3.9v.6a1.3,1.3,0,0,0,.3,1C192.5,38,192.7,38.1,193.1,38.1Z"/><path class="cls-2" d="M196.1,33.3c0,.2,0,.3-.1.3h-.6c-.1,0-.1-.1-.1-.3a.4.4,0,0,1,.1-.3h.6A.4.4,0,0,1,196.1,33.3Zm-.1,5.3h-.7V34.4h.7Z"/><path class="cls-2" d="M197,36.3a2.1,2.1,0,0,1,.4-1.4,1.7,1.7,0,0,1,2.4,0,2,2,0,0,1,.4,1.4v.4a2.4,2.4,0,0,1-.4,1.5,1.7,1.7,0,0,1-1.2.5,1.3,1.3,0,0,1-1.1-.5,2.2,2.2,0,0,1-.5-1.4Zm.7.4a2.2,2.2,0,0,0,.2,1,.8.8,0,0,0,.7.4c.6,0,.9-.4.9-1.3v-.5a1.6,1.6,0,0,0-.2-1,1,1,0,0,0-1.4,0,3,3,0,0,0-.2,1Zm1.2-4h.9l-1,1.1h-.6Z"/><path class="cls-2" d="M201.8,34.4v.5a1.1,1.1,0,0,1,1-.5c.8,0,1.1.5,1.1,1.4v2.8h-.6V35.9a1.2,1.2,0,0,0-.2-.7c-.1-.2-.3-.2-.5-.2h-.4l-.4.5v3h-.7V34.4Z"/><path class="cls-2" d="M208.3,38.1l.6-.2a.8.8,0,0,0,.2-.6h.6a1.4,1.4,0,0,1-1.4,1.4,1.7,1.7,0,0,1-1.2-.5,2.6,2.6,0,0,1-.4-1.4v-.5a2.6,2.6,0,0,1,.4-1.4,1.3,1.3,0,0,1,1.2-.5,1.2,1.2,0,0,1,1,.4,1.2,1.2,0,0,1,.4,1.1h-.6a1.2,1.2,0,0,0-.2-.7.7.7,0,0,0-.6-.2.9.9,0,0,0-.7.3,2,2,0,0,0-.2.9v.6a2.2,2.2,0,0,0,.2,1A.9.9,0,0,0,208.3,38.1Z"/><path class="cls-2" d="M210.4,36.3a2.9,2.9,0,0,1,.4-1.4,1.7,1.7,0,0,1,2.4,0,2,2,0,0,1,.4,1.4v.4a2.4,2.4,0,0,1-.4,1.5,1.7,1.7,0,0,1-1.2.5,1.3,1.3,0,0,1-1.1-.5,2.2,2.2,0,0,1-.5-1.4Zm.7.4a2.2,2.2,0,0,0,.2,1,.8.8,0,0,0,.7.4c.6,0,.9-.4,1-1.3v-.5a1.7,1.7,0,0,0-.3-1,1,1,0,0,0-1.4,0,3,3,0,0,0-.2,1Z"/><path class="cls-2" d="M215.2,34.4v.5a1.1,1.1,0,0,1,1-.5c.8,0,1.1.5,1.2,1.4v2.8h-.7V35.9a1.2,1.2,0,0,0-.2-.7c-.1-.2-.3-.2-.5-.2h-.4l-.4.5v3h-.6V34.4Z"/><path class="cls-2" d="M221.8,38.7a1.4,1.4,0,0,1-1.2-.5,1.7,1.7,0,0,1-.5-1.3v-.5a3,3,0,0,1,.4-1.5,1.3,1.3,0,0,1,1.2-.5,1.4,1.4,0,0,1,1.1.4,2.8,2.8,0,0,1,.3,1.5v.4h-2.3a1.3,1.3,0,0,0,.3,1,.8.8,0,0,0,.7.3h.5l.5-.4.3.5A1.5,1.5,0,0,1,221.8,38.7Zm-.1-3.7-.6.2a1.3,1.3,0,0,0-.3,1h1.7c-.1-.4-.1-.7-.3-.9S221.9,35,221.7,35Z"/><path class="cls-2" d="M224.7,38.6h-.6V32.7h.6Z"/><path class="cls-2" d="M228.7,33l1.5,4.6,1.4-4.6h.9v5.6h-.7V34.2l-1.5,4.4h-.5l-1.5-4.3v4.3h-.7V33Z"/><path class="cls-2" d="M235.2,38.7a1.7,1.7,0,0,1-1.2-.5,1.7,1.7,0,0,1-.4-1.3v-.5a2.2,2.2,0,0,1,.4-1.5,1.2,1.2,0,0,1,1.1-.5,1.2,1.2,0,0,1,1.1.4,2.1,2.1,0,0,1,.4,1.5v.4h-2.3c0,.5,0,.8.2,1a.9.9,0,0,0,.7.3h.6l.4-.4.4.5A1.7,1.7,0,0,1,235.2,38.7Zm-.1-3.7-.6.2a2.2,2.2,0,0,0-.2,1h1.6a2,2,0,0,0-.2-.9C235.6,35,235.4,35,235.1,35Z"/><path class="cls-2" d="M237.3,36.3a2,2,0,0,1,.4-1.4c.2-.4.5-.5,1-.5a.9.9,0,0,1,.9.5V32.7h.7v5.9h-.6v-.4a1.4,1.4,0,0,1-1,.5,1.2,1.2,0,0,1-1-.5,2,2,0,0,1-.4-1.4Zm.7.4a3.1,3.1,0,0,0,.2,1.1.8.8,0,0,0,.7.3.8.8,0,0,0,.7-.5V35.5a.6.6,0,0,0-.7-.5.8.8,0,0,0-.7.3,2.5,2.5,0,0,0-.2,1Z"/><path class="cls-2" d="M242.2,33.3c0,.2,0,.3-.1.3h-.6a.4.4,0,0,1-.1-.3c0-.1.1-.2.1-.3h.6A.4.4,0,0,1,242.2,33.3Zm-.1,5.3h-.6V34.4h.6Z"/><path class="cls-2" d="M243.1,36.3a2.2,2.2,0,0,1,.5-1.4c.2-.4.6-.5,1.1-.5a1.3,1.3,0,0,1,1.2.5,2,2,0,0,1,.4,1.4v.4a2.4,2.4,0,0,1-.4,1.5,1.7,1.7,0,0,1-1.2.5,1.4,1.4,0,0,1-1.1-.5,2.2,2.2,0,0,1-.5-1.4Zm.7.4a2.2,2.2,0,0,0,.2,1,.8.8,0,0,0,.7.4c.6,0,.9-.4,1-1.3v-.5a1.7,1.7,0,0,0-.3-1,1,1,0,0,0-1.4,0,3,3,0,0,0-.2,1Z"/></svg>